<svg width="110" height="110" xmlns="http://www.w3.org/2000/svg">

 <g>
  <title>background</title>
  <rect fill="none" id="canvas_background" height="402" width="582" y="-1" x="-1"/>
 </g>
 <g>
  <title>Layer 1</title>
  <circle id="svg_1" fill="none" r="55" cy="55" cx="55"/>
  <path id="svg_3" fill="#E2E4E5" d="m87,87l-64,0l0,-0.040001c0,-2.186996 1.773001,-3.959999 3.959999,-3.959999l56.080002,0c2.186996,0 3.959999,1.773003 3.959999,3.959999l0,0.040001z"/>
  <rect id="svg_4" fill="#FFFFFF" y="47" x="27" width="56" height="36"/>
  <path id="svg_5" fill="#DF2C2C" d="m32.143002,47c0,2.209 -2.047001,4 -4.571001,4s-4.572001,-1.791 -4.572001,-4l9.143002,0z"/>
  <path id="svg_6" fill="#CFD3D4" d="m41.285999,47c0,2.209 -2.047001,4 -4.570999,4s-4.570999,-1.791 -4.570999,-4l9.141998,0z"/>
  <path id="svg_7" fill="#DF2C2C" d="m50.429001,47c0,2.209 -2.047001,4 -4.570999,4s-4.571003,-1.791 -4.571003,-4l9.142002,0z"/>
  <path id="svg_8" fill="#CFD3D4" d="m59.570999,47c0,2.209 -2.047001,4 -4.570999,4s-4.570999,-1.791 -4.570999,-4l9.141998,0z"/>
  <path id="svg_9" fill="#CFD3D4" d="m77.857002,47c0,2.209 -2.047005,4 -4.570999,4c-2.525002,0 -4.571007,-1.791 -4.571007,-4l9.142006,0z"/>
  <path id="svg_10" fill="#DF2C2C" d="m68.713997,47c0,2.209 -2.046997,4 -4.570999,4c-2.524998,0 -4.570999,-1.791 -4.570999,-4l9.141998,0z"/>
  <path id="svg_11" fill="#DF2C2C" d="m87,47c0,2.209 -2.046997,4 -4.570999,4c-2.525002,0 -4.570999,-1.791 -4.570999,-4l9.141998,0z"/>
  <polygon id="svg_12" fill="#FA5655" points="23,47 32.143,47 40.143,27 32.143,27   "/>
  <polygon id="svg_13" fill="#FFFFFF" points="32.143,47 41.286,47 47,27 40.143,27   "/>
  <polygon id="svg_14" fill="#FA5655" points="41.286,47 50.429,47 53.857,27 47,27   "/>
  <polygon id="svg_15" fill="#FFFFFF" points="50.429,47 59.571,47 59.571,27 53.857,27   "/>
  <polygon id="svg_16" fill="#FA5655" points="87,47 77.857,47 72.143,27 79,27   "/>
  <polygon id="svg_17" fill="#FFFFFF" points="77.857,47 68.714,47 65.286,27 72.143,27   "/>
  <polygon id="svg_18" fill="#FA5655" points="68.714,47 59.571,47 59.571,27 65.286,27   "/>
  <rect id="svg_19" fill="#6FDAF1" y="55" x="31" width="28" height="16"/>
  <polygon id="svg_20" fill="#40C9E7" points="59,71 31,71 59,55   "/>
  <rect id="svg_21" fill="#40C9E7" y="55" x="65" width="14" height="13"/>
  <rect id="svg_22" fill="#40C9E7" y="71" x="65" width="14" height="12"/>
  <path id="svg_23" fill="#0D9681" d="m57.978001,76c0.259998,-3.258003 -3.404999,-5.625 -7.407001,-5.625c-2.323997,0 -4.396,0.764 -5.758999,1.959c-0.618999,-1.181999 -1.646,-1.959 -2.812,-1.959c-1.092999,0 -2.055,0.692001 -2.682999,1.75c-0.775002,-1.917999 -2.607002,-3.267998 -4.746002,-3.267998c-2.5,0 -4.58,1.845001 -5.042,4.287994c-0.358,-0.309998 -0.783998,-0.492996 -1.243,-0.492996c-1.355,0 -2.406,1.540001 -2.261999,3.348l31.954,0z"/>
  <rect id="svg_24" fill="#9C6144" y="76" x="26" width="32" height="7"/>
  <rect id="svg_25" fill="#AF7653" y="76" x="26" width="32" height="2"/>
 </g>
</svg>